<svg xmlns="http://www.w3.org/2000/svg" width="1200" height="660" viewBox="0 0 1200 660">
  <rect width="1200" height="660" fill="#F7FAFE"/>
  <rect x="36" y="34" width="1128" height="592" rx="18" fill="#FFFFFF" stroke="#D3DFEE" stroke-width="2"/>
  <text x="78" y="92" font-family="Noto Sans CJK SC, Noto Sans SC, sans-serif" font-size="34" font-weight="700" fill="#002451">四大云厂合计总资本开支：绝对额上升，增速快速降档</text>
  <text x="78" y="132" font-family="Noto Sans CJK SC, Noto Sans SC, sans-serif" font-size="21" fill="#59697D">Microsoft、Amazon、Alphabet、Meta｜UBS估算，经Reuters转述｜十亿美元</text>

  <line x1="125" y1="510" x2="1080" y2="510" stroke="#B7C8DD" stroke-width="2"/>
  <line x1="125" y1="190" x2="125" y2="510" stroke="#B7C8DD" stroke-width="2"/>
  <line x1="125" y1="430" x2="1080" y2="430" stroke="#E4EBF4" stroke-width="1"/>
  <line x1="125" y1="350" x2="1080" y2="350" stroke="#E4EBF4" stroke-width="1"/>
  <line x1="125" y1="270" x2="1080" y2="270" stroke="#E4EBF4" stroke-width="1"/>
  <line x1="125" y1="190" x2="1080" y2="190" stroke="#E4EBF4" stroke-width="1"/>

  <text x="80" y="516" font-family="Noto Sans CJK SC, sans-serif" font-size="17" fill="#7A8797">0</text>
  <text x="57" y="436" font-family="Noto Sans CJK SC, sans-serif" font-size="17" fill="#7A8797">250</text>
  <text x="57" y="356" font-family="Noto Sans CJK SC, sans-serif" font-size="17" fill="#7A8797">500</text>
  <text x="57" y="276" font-family="Noto Sans CJK SC, sans-serif" font-size="17" fill="#7A8797">750</text>
  <text x="45" y="196" font-family="Noto Sans CJK SC, sans-serif" font-size="17" fill="#7A8797">1,000</text>

  <rect x="226" y="294.6" width="170" height="215.4" rx="7" fill="#7EA8D8"/>
  <rect x="515" y="240.9" width="170" height="269.1" rx="7" fill="#4B82BF"/>
  <rect x="804" y="224.6" width="170" height="285.4" rx="7" fill="#1C5A9E"/>

  <text x="311" y="279" text-anchor="middle" font-family="Noto Sans CJK SC, sans-serif" font-size="30" font-weight="700" fill="#1E3D61">$673B</text>
  <text x="600" y="225" text-anchor="middle" font-family="Noto Sans CJK SC, sans-serif" font-size="30" font-weight="700" fill="#1E3D61">$841B</text>
  <text x="889" y="209" text-anchor="middle" font-family="Noto Sans CJK SC, sans-serif" font-size="30" font-weight="700" fill="#1E3D61">$892B</text>

  <text x="311" y="550" text-anchor="middle" font-family="Noto Sans CJK SC, sans-serif" font-size="24" font-weight="700" fill="#28394C">2026E</text>
  <text x="600" y="550" text-anchor="middle" font-family="Noto Sans CJK SC, sans-serif" font-size="24" font-weight="700" fill="#28394C">2027E</text>
  <text x="889" y="550" text-anchor="middle" font-family="Noto Sans CJK SC, sans-serif" font-size="24" font-weight="700" fill="#28394C">2028E</text>

  <rect x="247" y="578" width="128" height="36" rx="18" fill="#E6F4ED"/>
  <rect x="536" y="578" width="128" height="36" rx="18" fill="#FFF3D8"/>
  <rect x="825" y="578" width="128" height="36" rx="18" fill="#FCE7E6"/>
  <text x="311" y="603" text-anchor="middle" font-family="Noto Sans CJK SC, sans-serif" font-size="21" font-weight="700" fill="#247253">同比 +76%</text>
  <text x="600" y="603" text-anchor="middle" font-family="Noto Sans CJK SC, sans-serif" font-size="21" font-weight="700" fill="#9B6B00">同比 +25%</text>
  <text x="889" y="603" text-anchor="middle" font-family="Noto Sans CJK SC, sans-serif" font-size="21" font-weight="700" fill="#A64B46">同比 +6%</text>
</svg>
